<?xml version="1.0" standalone="no"?>
<!DOCTYPE svg PUBLIC "-//W3C//DTD SVG 20010904//EN"
 "http://www.w3.org/TR/2001/REC-SVG-20010904/DTD/svg10.dtd">
<svg version="1.0" xmlns="http://www.w3.org/2000/svg"
 width="222.000000pt" height="202.000000pt" viewBox="0 0 222.000000 202.000000"
 preserveAspectRatio="xMidYMid meet">

<g transform="translate(0.000000,202.000000) scale(0.100000,-0.100000)"
fill="#000000" stroke="none">
<path d="M1011 1775 l-162 -236 31 -53 c16 -30 30 -56 30 -59 0 -3 -31 -7 -68
-9 l-69 -3 37 -102 38 -103 -88 0 -87 0 43 -162 c24 -89 47 -165 51 -169 26
-23 338 -232 347 -232 9 0 312 200 340 224 14 13 94 429 82 428 -6 0 -33 -8
-61 -18 -41 -15 -51 -23 -60 -52 -8 -27 -11 5 -15 164 l-5 197 -82 -76 c-46
-41 -83 -69 -83 -62 0 8 11 52 25 99 13 46 25 90 25 97 0 8 -26 -1 -71 -24
-39 -19 -73 -33 -75 -31 -3 2 6 96 19 208 14 112 23 205 22 207 -2 2 -75 -103
-164 -233z m-31 -916 c69 -78 67 -78 -62 10 -67 45 -68 47 -68 91 l1 45 32
-36 c18 -20 61 -69 97 -110z m410 99 c-1 -42 -3 -45 -68 -89 -37 -25 -80 -54
-97 -65 l-30 -19 34 40 c70 82 154 175 157 175 2 0 4 -19 4 -42z"/>
<path d="M760 772 l0 -38 86 -21 c47 -11 82 -17 77 -13 -4 4 -43 31 -85 59
l-78 52 0 -39z"/>
<path d="M963 523 l-53 -4 0 -150 0 -149 105 0 105 0 0 30 0 30 -80 0 -80 0 0
35 0 35 58 0 c81 0 102 8 102 36 0 23 -2 24 -79 24 l-79 0 -4 30 -5 30 84 0
83 0 0 30 c0 30 0 30 -52 28 -29 -1 -77 -3 -105 -5z"/>
<path d="M1160 376 l0 -156 130 0 130 0 0 90 c0 63 -4 90 -12 90 -9 0 -9 3 0
12 7 7 12 34 12 60 l0 48 -92 0 c-51 0 -110 3 -130 6 l-38 7 0 -157z m169 88
c24 -5 31 -12 31 -30 0 -23 -2 -24 -82 -24 -64 0 -79 3 -70 12 7 7 12 20 12
30 0 14 8 18 39 18 21 0 53 -3 70 -6z m31 -149 l0 -35 -70 0 -70 0 0 35 0 35
70 0 70 0 0 -35z"/>
<path d="M735 513 c-22 -1 -68 -6 -102 -9 l-63 -6 0 -149 0 -149 26 0 26 0 -4
125 -3 125 38 0 37 0 0 -120 0 -120 30 0 30 0 0 113 c0 75 -4 117 -12 125 -9
9 -3 12 30 12 l42 0 0 -120 0 -120 30 0 30 0 0 150 0 150 -47 -2 c-27 -1 -66
-3 -88 -5z"/>
<path d="M0 311 c0 -161 3 -202 13 -198 7 3 59 13 115 23 l102 17 0 95 0 94
-30 -6 c-16 -3 -43 -9 -60 -12 -25 -5 -30 -10 -30 -35 0 -29 1 -30 35 -23 35
6 35 6 35 -29 0 -38 7 -34 -90 -53 l-30 -6 0 86 c0 54 -4 86 -11 86 -5 0 -8 4
-5 8 3 5 38 14 78 21 105 18 108 19 108 47 0 28 -13 30 -91 13 l-51 -11 -44
43 -44 43 0 -203z"/>
<path d="M1460 363 l0 -150 113 -9 c61 -6 115 -9 120 -7 10 5 9 290 -1 297 -4
2 -58 8 -120 12 l-112 7 0 -150z m164 81 c13 -5 16 -23 16 -88 0 -45 5 -87 10
-92 7 -7 -7 -9 -47 -7 -32 3 -63 6 -70 8 -7 2 -13 36 -15 94 l-3 91 47 0 c25
0 53 -3 62 -6z"/>
<path d="M2174 469 l-41 -41 -52 11 c-94 20 -91 22 -91 -72 l0 -84 85 -13 85
-13 0 -39 c0 -21 -1 -38 -2 -38 -2 0 -38 7 -81 15 -43 8 -81 15 -83 15 -2 0
-4 -13 -4 -28 0 -28 1 -29 102 -46 56 -10 108 -20 115 -23 10 -4 13 17 13 90
l0 96 -57 11 c-32 6 -70 13 -85 16 -18 4 -28 12 -28 23 0 9 -5 22 -12 29 -15
15 -11 15 90 -4 46 -8 86 -13 88 -11 3 3 4 37 2 76 l-3 71 -41 -41z"/>
<path d="M390 479 c-30 -5 -70 -11 -87 -14 l-33 -6 0 -150 c0 -150 0 -150 23
-147 19 3 22 10 25 60 3 63 -2 59 105 74 l47 6 0 -56 c0 -53 1 -56 25 -56 l25
0 0 150 0 150 -37 -1 c-21 -1 -63 -5 -93 -10z m80 -83 c0 -39 -4 -41 -96 -51
l-60 -7 4 36 c4 38 9 41 77 49 75 10 75 9 75 -27z"/>
<path d="M1730 407 l0 -85 85 -12 85 -12 0 -37 0 -37 -85 11 -85 12 0 -29 c0
-15 3 -28 8 -28 4 0 52 -7 107 -15 55 -8 103 -15 108 -15 4 0 7 42 7 94 l0 93
-52 7 c-103 13 -118 18 -118 35 0 9 -5 22 -12 29 -15 15 -14 15 95 -2 l87 -13
0 28 c0 25 -4 28 -62 37 -35 6 -87 14 -115 17 l-53 7 0 -85z"/>
<path d="M491 38 c1 -24 3 -35 6 -25 3 10 14 17 29 17 19 0 24 5 24 25 0 21
-5 25 -30 25 -29 0 -30 -2 -29 -42z m36 16 c-3 -3 -12 -4 -19 -1 -8 3 -5 6 6
6 11 1 17 -2 13 -5z"/>
<path d="M567 73 c-10 -10 -8 -73 2 -73 5 0 12 6 14 13 4 9 8 8 16 -3 5 -8 13
-11 17 -7 4 3 2 12 -4 20 -6 7 -9 23 -5 35 4 17 1 22 -14 22 -11 0 -23 -3 -26
-7z"/>
<path d="M630 40 c0 -36 3 -40 25 -40 29 0 34 16 8 23 -17 4 -17 5 0 6 9 0 17
5 17 10 0 5 -8 12 -17 14 -17 4 -17 5 0 6 27 2 20 21 -8 21 -22 0 -25 -4 -25
-40z"/>
<path d="M700 56 c0 -18 7 -26 23 -29 l22 -4 -22 -2 c-31 -2 -29 -21 2 -21 34
0 36 46 3 53 l-23 4 23 2 c30 2 28 21 -3 21 -20 0 -25 -5 -25 -24z"/>
<path d="M770 56 c0 -18 7 -26 23 -29 l22 -4 -22 -2 c-34 -2 -28 -21 7 -21 25
0 30 4 30 24 0 19 -6 26 -27 29 l-28 4 28 2 c34 1 26 21 -9 21 -19 0 -24 -5
-24 -24z"/>
<path d="M880 56 c0 -18 7 -26 23 -29 l22 -4 -22 -2 c-34 -2 -28 -21 7 -21 25
0 30 4 30 24 0 19 -6 26 -27 29 l-28 4 28 2 c34 1 26 21 -9 21 -19 0 -24 -5
-24 -24z"/>
<path d="M950 70 c0 -5 5 -10 10 -10 6 0 10 -13 10 -30 0 -17 5 -30 10 -30 6
0 10 11 10 24 0 13 3 31 6 40 5 12 0 16 -20 16 -14 0 -26 -4 -26 -10z"/>
<path d="M1021 38 c1 -24 3 -35 6 -25 6 22 40 22 46 0 3 -10 5 1 6 25 1 40 0
42 -29 42 -29 0 -30 -2 -29 -42z m49 12 c0 -5 -6 -10 -14 -10 -8 0 -18 5 -21
10 -3 6 3 10 14 10 12 0 21 -4 21 -10z"/>
<path d="M1100 38 c0 -32 3 -39 12 -30 7 7 16 8 22 2 8 -6 12 3 12 31 1 35 -1
39 -22 39 -21 0 -24 -4 -24 -42z m30 18 c0 -3 -4 -8 -10 -11 -5 -3 -10 -1 -10
4 0 6 5 11 10 11 6 0 10 -2 10 -4z"/>
<path d="M1170 70 c0 -5 4 -10 9 -10 6 0 12 -15 14 -32 l4 -33 1 33 c1 17 7
32 12 32 6 0 10 5 10 10 0 6 -11 10 -25 10 -14 0 -25 -4 -25 -10z"/>
<path d="M1270 70 c0 -5 4 -10 9 -10 6 0 12 -15 14 -32 l4 -33 1 33 c1 17 7
32 12 32 6 0 10 5 10 10 0 6 -11 10 -25 10 -14 0 -25 -4 -25 -10z"/>
<path d="M1340 41 c0 -39 1 -41 31 -41 29 0 30 2 27 38 -3 32 -7 37 -30 40
-27 3 -28 1 -28 -37z m40 -1 c0 -11 -7 -20 -15 -20 -8 0 -15 9 -15 20 0 11 7
20 15 20 8 0 15 -9 15 -20z"/>
<path d="M1451 38 c1 -24 3 -35 6 -26 2 9 14 18 26 20 34 5 29 42 -5 46 -27 3
-28 2 -27 -40z m36 16 c-3 -3 -12 -4 -19 -1 -8 3 -5 6 6 6 11 1 17 -2 13 -5z"/>
<path d="M1528 74 c-5 -4 -8 -22 -8 -41 0 -29 3 -33 25 -33 14 0 25 5 25 10 0
6 -6 10 -14 10 -9 0 -16 12 -18 31 -2 17 -6 27 -10 23z"/>
<path d="M1590 40 c0 -22 5 -40 10 -40 6 0 10 7 10 15 0 21 28 19 33 -2 3 -10
5 1 6 25 1 40 0 42 -29 42 -28 0 -30 -2 -30 -40z m50 10 c0 -5 -7 -10 -15 -10
-8 0 -15 5 -15 10 0 6 7 10 15 10 8 0 15 -4 15 -10z"/>
<path d="M1670 72 c0 -6 5 -14 10 -17 6 -3 10 -17 10 -31 0 -13 5 -24 10 -24
6 0 10 11 10 24 0 14 5 28 10 31 6 3 10 11 10 17 0 7 -6 6 -15 -2 -12 -10 -18
-10 -30 0 -9 8 -15 9 -15 2z"/>
</g>
</svg>
